<mxfile host="65bd71144e">
    <diagram id="vzMcLdz6MZOfLCW0S1ww" name="第 1 页">
        <mxGraphModel dx="2505" dy="1564" grid="1" gridSize="10" guides="1" tooltips="1" connect="1" arrows="1" fold="1" page="1" pageScale="1" pageWidth="2339" pageHeight="3300" math="0" shadow="0">
            <root>
                <mxCell id="0"/>
                <mxCell id="1" parent="0"/>
            </root>
        </mxGraphModel>
    </diagram>
</mxfile>
